<svg width="141" height="141" viewBox="0 0 141 141" fill="none" xmlns="http://www.w3.org/2000/svg">
<g clip-path="url(#clip0_36_42)">
<path d="M111.625 5.875H29.375C21.5871 5.88433 14.1209 8.98218 8.61404 14.489C3.10718 19.9959 0.00932866 27.4621 0 35.25L0 105.75C0.00932866 113.538 3.10718 121.004 8.61404 126.511C14.1209 132.018 21.5871 135.116 29.375 135.125H111.625C119.413 135.116 126.879 132.018 132.386 126.511C137.893 121.004 140.991 113.538 141 105.75V35.25C140.991 27.4621 137.893 19.9959 132.386 14.489C126.879 8.98218 119.413 5.88433 111.625 5.875ZM29.375 17.625H111.625C115.143 17.6319 118.578 18.6914 121.489 20.6671C124.4 22.6428 126.652 25.4443 127.958 28.7111L82.9668 73.7078C79.6558 77.0055 75.1731 78.857 70.5 78.857C65.8269 78.857 61.3442 77.0055 58.0333 73.7078L13.0425 28.7111C14.3476 25.4443 16.6005 22.6428 19.5112 20.6671C22.4218 18.6914 25.8571 17.6319 29.375 17.625ZM111.625 123.375H29.375C24.7006 123.375 20.2176 121.518 16.9122 118.213C13.6069 114.907 11.75 110.424 11.75 105.75V44.0625L49.726 82.015C55.2404 87.5155 62.7113 90.6045 70.5 90.6045C78.2887 90.6045 85.7596 87.5155 91.274 82.015L129.25 44.0625V105.75C129.25 110.424 127.393 114.907 124.088 118.213C120.782 121.518 116.299 123.375 111.625 123.375Z" fill="white"/>
</g>
<defs>
<clipPath id="clip0_36_42">
<rect width="141" height="141" fill="white"/>
</clipPath>
</defs>
</svg>
