<svg width="88" height="88" viewBox="0 0 88 88" fill="none" xmlns="http://www.w3.org/2000/svg">
<g clip-path="url(#clip0_36_21)">
<path fill-rule="evenodd" clip-rule="evenodd" d="M44 1.08545C19.701 1.08545 0 20.7828 0 45.0854C0 64.5261 12.606 81.0188 30.0887 86.8378C32.2887 87.2448 33.0953 85.8845 33.0953 84.7221C33.0953 83.6735 33.055 80.2085 33.0367 76.5308C20.7973 79.1928 18.2123 71.3388 18.2123 71.3388C16.2103 66.2531 13.3283 64.9001 13.3283 64.9001C9.33533 62.1684 13.629 62.2271 13.629 62.2271C18.0473 62.5388 20.372 66.7628 20.372 66.7628C24.2953 73.4874 30.6643 71.5441 33.176 70.4184C33.572 67.5731 34.7123 65.6335 35.97 64.5335C26.1983 63.4225 15.9243 59.6494 15.9243 42.7901C15.9243 37.9868 17.644 34.0598 20.46 30.9798C20.0017 29.8688 18.4947 25.3954 20.8853 19.3344C20.8853 19.3344 24.5813 18.1538 32.989 23.8444C36.498 22.8691 40.26 22.3814 44 22.3631C47.74 22.3814 51.5057 22.8691 55.022 23.8444C63.4187 18.1501 67.111 19.3344 67.111 19.3344C69.5053 25.3954 67.9983 29.8688 67.5437 30.9798C70.3633 34.0598 72.072 37.9868 72.072 42.7901C72.072 59.6898 61.7797 63.4114 51.9823 64.5004C53.559 65.8644 54.967 68.5448 54.967 72.6478C54.967 78.5364 54.9157 83.2738 54.9157 84.7221C54.9157 85.8918 55.7077 87.2668 57.937 86.8341C75.4123 81.0078 88.0037 64.5224 88.0037 45.0891C88 20.7864 68.299 1.08545 44 1.08545Z" fill="white"/>
<path d="M16.6651 64.2621C16.5698 64.4822 16.2251 64.5482 15.9098 64.3978C15.5908 64.2548 15.4111 63.9541 15.5138 63.7378C15.6091 63.5141 15.9538 63.4518 16.2728 63.6021C16.5918 63.7415 16.7751 64.0421 16.6651 64.2621Z" fill="white"/>
<path d="M18.4469 66.2493C18.2379 66.4437 17.8273 66.352 17.5486 66.0477C17.2589 65.7397 17.2076 65.329 17.4203 65.1347C17.6366 64.9403 18.0326 65.032 18.3223 65.34C18.6119 65.6443 18.6669 66.0513 18.4469 66.2493Z" fill="white"/>
<path d="M20.1814 68.783C19.91 68.97 19.47 68.794 19.1987 68.4054C18.9274 68.013 18.9274 67.5437 19.206 67.3567C19.4774 67.1697 19.9137 67.3384 20.1887 67.727C20.4564 68.123 20.4564 68.5924 20.1814 68.783Z" fill="white"/>
<path d="M22.5574 71.2324C22.3154 71.5001 21.8021 71.4267 21.4281 71.0637C21.0431 70.7081 20.9367 70.2057 21.1787 69.9381C21.4244 69.6704 21.9414 69.7474 22.3191 70.1067C22.7004 70.4624 22.8141 70.9684 22.5574 71.2324Z" fill="white"/>
<path d="M25.839 72.6513C25.7327 72.996 25.2377 73.1537 24.739 73.007C24.2404 72.8567 23.914 72.4533 24.0167 72.105C24.1194 71.7567 24.618 71.5953 25.1204 71.753C25.6154 71.8997 25.9417 72.303 25.839 72.6513Z" fill="white"/>
<path d="M29.4396 72.9154C29.4506 73.2784 29.029 73.5791 28.5046 73.5864C27.9803 73.5974 27.5513 73.3041 27.5476 72.9484C27.5476 72.5817 27.9619 72.2847 28.4863 72.2737C29.0106 72.2627 29.4396 72.5561 29.4396 72.9154Z" fill="white"/>
<path d="M32.7909 72.3471C32.8533 72.6991 32.4903 73.0657 31.9696 73.161C31.4599 73.2564 30.9869 73.0364 30.9209 72.6844C30.8586 72.3214 31.2289 71.9584 31.7386 71.8631C32.2556 71.7714 32.7249 71.9841 32.7909 72.3471Z" fill="white"/>
</g>
<defs>
<clipPath id="clip0_36_21">
<rect width="88" height="88" fill="white"/>
</clipPath>
</defs>
</svg>
