<svg width="111" height="111" viewBox="0 0 111 111" fill="none" xmlns="http://www.w3.org/2000/svg">
<g clip-path="url(#clip0_36_45)">
<path d="M89.4151 67.8351C85.9182 67.8379 82.4745 68.6916 79.3812 70.3225C76.2878 71.9533 73.6378 74.3124 71.6597 77.1961L41.5556 63.6032C43.6938 58.44 43.7021 52.6405 41.5787 47.4712L71.6412 33.8089C74.5729 38.0489 78.9271 41.0978 83.9141 42.4024C88.9011 43.707 94.1905 43.181 98.8229 40.9199C103.455 38.6587 107.124 34.8121 109.163 30.0778C111.202 25.3435 111.477 20.0351 109.938 15.1155C108.399 10.1959 105.147 5.99091 100.773 3.26336C96.3988 0.535808 91.192 -0.533684 86.0969 0.248882C81.0018 1.03145 76.356 3.61424 73.0021 7.52876C69.6482 11.4433 67.8083 16.4302 67.8164 21.585C67.836 22.8051 67.9597 24.0213 68.1863 25.2203L36.2276 39.7428C33.1582 36.8671 29.3156 34.9505 25.1719 34.2287C21.0282 33.5069 16.7639 34.0111 12.9028 35.6795C9.04179 37.348 5.75219 40.1079 3.43817 43.6202C1.12415 47.1326 -0.113509 51.2444 -0.122751 55.4505C-0.131992 59.6565 1.08758 63.7737 3.38615 67.2962C5.68472 70.8187 8.96216 73.593 12.8158 75.2784C16.6695 76.9638 20.9315 77.4868 25.0784 76.7832C29.2252 76.0795 33.0762 74.1799 36.1582 71.3177L68.2002 85.7847C67.9777 86.9826 67.8555 88.1971 67.8348 89.4153C67.8339 93.6848 69.0992 97.8586 71.4706 101.409C73.8421 104.959 77.2131 107.727 81.1574 109.361C85.1017 110.995 89.4421 111.423 93.6296 110.59C97.8171 109.758 101.664 107.702 104.683 104.683C107.702 101.664 109.757 97.8173 110.59 93.6298C111.423 89.4423 110.995 85.1019 109.361 81.1576C107.726 77.2133 104.959 73.8423 101.409 71.4708C97.8584 69.0994 93.6846 67.8341 89.4151 67.8351ZM89.4151 9.25017C91.8549 9.24926 94.2402 9.97191 96.2693 11.3267C98.2983 12.6815 99.88 14.6077 100.814 16.8615C101.749 19.1153 101.994 21.5956 101.518 23.9886C101.043 26.3817 99.8683 28.58 98.1434 30.3055C96.4186 32.031 94.2207 33.2063 91.8279 33.6826C89.435 34.1589 86.9546 33.9149 84.7004 32.9814C82.4463 32.048 80.5196 30.467 79.164 28.4384C77.8084 26.4099 77.0849 24.0249 77.0849 21.585C77.0873 18.3152 78.387 15.1799 80.6987 12.8673C83.0104 10.5547 86.1452 9.25384 89.4151 9.25017ZM21.5848 67.8351C19.145 67.836 16.7598 67.1133 14.7307 65.7585C12.7016 64.4037 11.1199 62.4776 10.1856 60.2237C9.2513 57.9699 9.00637 55.4896 9.48179 53.0966C9.95721 50.7036 11.1316 48.5053 12.8565 46.7797C14.5814 45.0542 16.7792 43.879 19.1721 43.4027C21.565 42.9263 24.0453 43.1703 26.2995 44.1038C28.5537 45.0373 30.4804 46.6182 31.836 48.6468C33.1916 50.6754 33.9151 53.0604 33.9151 55.5002C33.9114 58.7697 32.6113 61.9043 30.2999 64.2166C27.9884 66.5289 24.8543 67.8302 21.5848 67.8351ZM89.4151 101.75C86.9755 101.75 84.5907 101.027 82.5622 99.6714C80.5338 98.316 78.9528 96.3896 78.0192 94.1357C77.0856 91.8818 76.8413 89.4016 77.3172 87.0089C77.7932 84.6162 78.968 82.4183 80.693 80.6932C82.4181 78.9682 84.616 77.7934 87.0087 77.3174C89.4014 76.8415 91.8816 77.0858 94.1355 78.0194C96.3894 78.953 98.3158 80.534 99.6712 82.5624C101.027 84.5909 101.75 86.9757 101.75 89.4153C101.748 92.686 100.447 95.822 98.1345 98.1347C95.8218 100.447 92.6858 101.748 89.4151 101.75Z" fill="white"/>
</g>
<defs>
<clipPath id="clip0_36_45">
<rect width="111" height="111" fill="white"/>
</clipPath>
</defs>
</svg>
