<svg width="18" height="23" viewBox="0 0 18 23" fill="none" xmlns="http://www.w3.org/2000/svg">
<path d="M10.5558 22.1187C10.38 22.1187 10.2091 22.054 10.0685 21.9344L6.81994 19.1695C6.71908 19.0837 6.63721 18.9724 6.58083 18.8444C6.52444 18.7164 6.49509 18.5753 6.49509 18.4322V13.2528L0.797143 5.9785C0.392472 5.46044 0.128251 4.82078 0.0362368 4.13641C-0.0557777 3.45204 0.02833 2.75207 0.278451 2.12064C0.528572 1.48921 0.934062 0.953186 1.44619 0.57699C1.95831 0.200794 2.55527 0.00043723 3.16533 0L14.6977 0C15.3077 0.000811987 15.9045 0.201501 16.4164 0.577949C16.9283 0.954398 17.3335 1.49059 17.5834 2.12209C17.8333 2.75359 17.9171 3.45354 17.8248 4.13781C17.7326 4.82208 17.4682 5.46157 17.0634 5.97942L11.3679 13.2528V21.1971C11.3679 21.4415 11.2823 21.6759 11.13 21.8488C10.9777 22.0216 10.7712 22.1187 10.5558 22.1187V22.1187ZM8.11936 17.9714L9.74363 19.3539V12.9026C9.74379 12.6769 9.8169 12.4592 9.9491 12.2906L15.8517 4.7546C16.0485 4.50215 16.177 4.19061 16.2216 3.85736C16.2662 3.52412 16.2251 3.18334 16.1033 2.87594C15.9814 2.56854 15.784 2.30759 15.5346 2.1244C15.2853 1.94121 14.9947 1.84358 14.6977 1.84322H3.16533C2.86846 1.84374 2.57801 1.94142 2.32883 2.12456C2.07966 2.3077 1.88232 2.56853 1.7605 2.87575C1.63868 3.18298 1.59755 3.52356 1.64203 3.85665C1.68651 4.18975 1.81472 4.5012 2.01129 4.75368L7.9147 12.2906C8.0466 12.4593 8.11942 12.677 8.11936 12.9026V17.9714Z" fill="white"/>
</svg>
