<svg width="126" height="126" viewBox="0 0 126 126" fill="none" xmlns="http://www.w3.org/2000/svg">
<g clip-path="url(#clip0_36_59)">
<path d="M121.385 47.6123L81.5639 7.78584C76.6355 2.87178 69.9597 0.112305 62.9999 0.112305C56.0402 0.112305 49.3644 2.87178 44.4359 7.78584L4.61469 47.6123C3.14692 49.0707 1.98323 50.8059 1.19107 52.7174C0.398916 54.6288 -0.00595167 56.6785 -5.8653e-05 58.7476V110.287C-5.8653e-05 114.464 1.65931 118.47 4.61301 121.424C7.56671 124.377 11.5728 126.037 15.7499 126.037H110.25C114.427 126.037 118.433 124.377 121.387 121.424C124.341 118.47 126 114.464 126 110.287V58.7476C126.006 56.6785 125.601 54.6288 124.809 52.7174C124.017 50.8059 122.853 49.0707 121.385 47.6123ZM78.7499 115.537H47.2499V94.8833C47.2499 90.7062 48.9093 86.7001 51.863 83.7464C54.8167 80.7927 58.8228 79.1333 62.9999 79.1333C67.1771 79.1333 71.1832 80.7927 74.1369 83.7464C77.0906 86.7001 78.7499 90.7062 78.7499 94.8833V115.537ZM115.5 110.287C115.5 111.679 114.947 113.015 113.962 113.999C112.978 114.984 111.642 115.537 110.25 115.537H89.2499V94.8833C89.2499 87.9214 86.4843 81.2446 81.5615 76.3218C76.6387 71.399 69.9619 68.6333 62.9999 68.6333C56.038 68.6333 49.3612 71.399 44.4384 76.3218C39.5156 81.2446 36.7499 87.9214 36.7499 94.8833V115.537H15.7499C14.3576 115.537 13.0222 114.984 12.0376 113.999C11.0531 113.015 10.4999 111.679 10.4999 110.287V58.7476C10.5048 57.3562 11.0574 56.0228 12.0382 55.0358L51.8594 15.2251C54.8189 12.2795 58.8244 10.6258 62.9999 10.6258C67.1754 10.6258 71.181 12.2795 74.1404 15.2251L113.962 55.0516C114.939 56.0346 115.491 57.3617 115.5 58.7476V110.287Z" fill="white"/>
</g>
<defs>
<clipPath id="clip0_36_59">
<rect width="126" height="126" fill="white"/>
</clipPath>
</defs>
</svg>
